<svg width="220" height="41" viewBox="0 0 220 41" fill="none" xmlns="http://www.w3.org/2000/svg">
<path fill-rule="evenodd" clip-rule="evenodd" d="M34.1007 35.0465H28.0863V24.6004C28.0863 21.5213 26.7626 20.5716 25.0935 20.5716C23.3094 20.5716 21.554 21.9242 21.554 24.6867V35.0465H15.5396V15.9385H21.3237V18.586H21.4101C21.9856 17.4349 24 15.4206 27.1079 15.4206C30.4748 15.4206 34.1007 17.3774 34.1007 23.2191V35.0465ZM8.92086 13.2623C6.99281 13.2623 5.46763 11.8234 5.46763 9.80904C5.46763 7.82343 6.99281 6.3558 8.92086 6.3558C10.8201 6.3558 12.3741 7.82343 12.3741 9.80904C12.3741 11.8234 10.8201 13.2623 8.92086 13.2623ZM5.89928 35.0177H11.9424V15.9098H5.89928V35.0177ZM37.0648 0.945732H2.96403C1.32374 0.945732 0 2.26947 0 3.90976V38.0105C0 39.622 1.32374 40.9457 2.96403 40.9457H37.0648C38.6763 40.9457 40 39.622 40 38.0105V3.90976C40 2.26947 38.6763 0.945732 37.0648 0.945732Z" fill="black"/>
<path d="M60.008 40.9457L62.712 31.0097C60.9303 27.9554 59.9942 24.4817 60 20.9457C60 9.89973 68.954 0.945732 80 0.945732C91.046 0.945732 100 9.89973 100 20.9457C100 31.9917 91.046 40.9457 80 40.9457C76.4656 40.9514 72.9933 40.016 69.94 38.2357L60.008 40.9457ZM72.782 11.5617C72.5237 11.5778 72.2714 11.6458 72.04 11.7617C71.8231 11.8846 71.625 12.0382 71.452 12.2177C71.212 12.4437 71.076 12.6397 70.93 12.8297C70.1908 13.7917 69.7932 14.9726 69.8 16.1857C69.804 17.1657 70.06 18.1197 70.46 19.0117C71.278 20.8157 72.624 22.7257 74.402 24.4957C74.83 24.9217 75.248 25.3497 75.698 25.7477C77.9048 27.6906 80.5345 29.0918 83.378 29.8397L84.516 30.0137C84.886 30.0337 85.256 30.0057 85.628 29.9877C86.2105 29.9576 86.7792 29.7999 87.294 29.5257C87.626 29.3497 87.782 29.2617 88.06 29.0857C88.06 29.0857 88.146 29.0297 88.31 28.9057C88.58 28.7057 88.746 28.5637 88.97 28.3297C89.136 28.1577 89.28 27.9557 89.39 27.7257C89.546 27.3997 89.702 26.7777 89.766 26.2597C89.814 25.8637 89.8 25.6477 89.794 25.5137C89.786 25.2997 89.608 25.0777 89.414 24.9837L88.25 24.4617C88.25 24.4617 86.51 23.7037 85.448 23.2197C85.336 23.1709 85.216 23.1431 85.094 23.1377C84.9572 23.1237 84.8189 23.1391 84.6885 23.1829C84.5581 23.2267 84.4386 23.2979 84.338 23.3917V23.3877C84.328 23.3877 84.194 23.5017 82.748 25.2537C82.665 25.3652 82.5507 25.4495 82.4196 25.4958C82.2885 25.5421 82.1466 25.5484 82.012 25.5137C81.8817 25.4789 81.754 25.4348 81.63 25.3817C81.382 25.2777 81.296 25.2377 81.126 25.1637L81.116 25.1597C79.9718 24.6602 78.9125 23.9854 77.976 23.1597C77.724 22.9397 77.49 22.6997 77.25 22.4677C76.4632 21.7142 75.7774 20.8617 75.21 19.9317L75.092 19.7417C75.0073 19.614 74.9387 19.4763 74.888 19.3317C74.812 19.0377 75.01 18.8017 75.01 18.8017C75.01 18.8017 75.496 18.2697 75.722 17.9817C75.9102 17.7424 76.0858 17.4934 76.248 17.2357C76.484 16.8557 76.558 16.4657 76.434 16.1637C75.874 14.7957 75.294 13.4337 74.698 12.0817C74.58 11.8137 74.23 11.6217 73.912 11.5837C73.804 11.5717 73.696 11.5597 73.588 11.5517C73.3194 11.5384 73.0503 11.5431 72.782 11.5617Z" fill="black"/>
<path d="M159.871 12.7383C159.847 11.0568 159.536 9.38865 158.94 7.81601C157.899 5.13054 155.777 3.00704 153.092 1.9675C151.539 1.38332 149.898 1.07012 148.236 1.03458C146.1 0.93907 145.422 0.912415 139.998 0.912415C134.574 0.912415 133.878 0.912415 131.757 1.03458C130.098 1.07012 128.456 1.38332 126.904 1.9675C124.218 3.00704 122.095 5.13054 121.055 7.81601C120.471 9.36866 120.155 11.0101 120.124 12.6694C120.029 14.8085 120 15.4859 120 20.9102C120 26.3344 120 27.0275 120.124 29.151C120.158 30.8125 120.471 32.4517 121.055 34.0088C122.097 36.6921 124.218 38.8156 126.906 39.8551C128.452 40.4593 130.093 40.8013 131.759 40.8547C133.898 40.9502 134.576 40.979 140 40.979C145.424 40.979 146.12 40.979 148.241 40.8547C149.9 40.8213 151.542 40.5081 153.096 39.924C155.782 38.8822 157.903 36.7587 158.945 34.0755C159.529 32.5206 159.842 30.8813 159.876 29.2176C159.971 27.0808 160 26.4033 160 20.9768C159.996 15.5526 159.996 14.864 159.871 12.7383ZM139.984 31.1679C134.311 31.1679 129.716 26.5721 129.716 20.8991C129.716 15.2261 134.311 10.6303 139.984 10.6303C145.653 10.6303 150.253 15.2261 150.253 20.8991C150.253 26.5721 145.653 31.1679 139.984 31.1679ZM150.662 12.645C149.336 12.645 148.267 11.5743 148.267 10.2505C148.267 8.92663 149.336 7.856 150.662 7.856C151.984 7.856 153.054 8.92663 153.054 10.2505C153.054 11.5743 151.984 12.645 150.662 12.645Z" fill="black"/>
<path d="M139.984 27.5694C143.668 27.5694 146.655 24.583 146.655 20.8991C146.655 17.2151 143.668 14.2287 139.984 14.2287C136.301 14.2287 133.314 17.2151 133.314 20.8991C133.314 24.583 136.301 27.5694 139.984 27.5694Z" fill="black"/>
<path fill-rule="evenodd" clip-rule="evenodd" d="M180 21.0574C180 31.0016 187.222 39.2697 196.667 40.9457V26.5012H191.667V20.9457H196.667V16.5013C196.667 11.5013 199.889 8.7235 204.445 8.7235C205.889 8.7235 207.444 8.94572 208.889 9.16793V14.279H206.333C203.889 14.279 203.333 15.5013 203.333 17.0568V20.9457H208.667L207.778 26.5012H203.333V40.9457C212.778 39.2697 220 31.0016 220 21.0574C220 9.99602 211 0.945732 200 0.945732C189 0.945732 180 9.99602 180 21.0574Z" fill="black"/>
</svg>
